<?xml version="1.0" encoding="utf-8"?>
<!-- Generator: Adobe Illustrator 25.0.0, SVG Export Plug-In . SVG Version: 6.00 Build 0)  -->
<svg version="1.1" id="Laag_1" xmlns="http://www.w3.org/2000/svg" xmlns:xlink="http://www.w3.org/1999/xlink" x="0px" y="0px"
	 viewBox="0 0 1417.3 1417.3" style="enable-background:new 0 0 1417.3 1417.3;" xml:space="preserve">
<style type="text/css">
	.st0{fill:#44150C;}
	.st1{fill:url(#SVGID_1_);}
	.st2{fill:url(#SVGID_2_);}
	.st3{fill:url(#SVGID_3_);}
	.st4{fill:url(#SVGID_4_);}
	.st5{fill:url(#SVGID_5_);}
	.st6{fill:url(#SVGID_6_);}
	.st7{fill:url(#SVGID_7_);}
	.st8{fill:url(#SVGID_8_);}
	.st9{fill:url(#SVGID_9_);}
	.st10{fill:url(#SVGID_10_);}
	.st11{fill:url(#SVGID_11_);}
	.st12{fill:url(#SVGID_12_);}
	.st13{fill:#D57510;}
	.st14{fill:url(#SVGID_13_);}
	.st15{fill:url(#SVGID_14_);}
	.st16{fill:url(#SVGID_15_);}
	.st17{fill:url(#SVGID_16_);}
	.st18{fill:url(#SVGID_17_);}
	.st19{fill:url(#SVGID_18_);}
	.st20{fill:url(#SVGID_19_);}
	.st21{fill:url(#SVGID_20_);}
	.st22{fill:url(#SVGID_21_);}
	.st23{fill:url(#SVGID_22_);}
	.st24{fill:url(#SVGID_23_);}
	.st25{fill:url(#SVGID_24_);}
	.st26{fill:url(#SVGID_25_);}
	.st27{fill:url(#SVGID_26_);}
	.st28{fill:url(#SVGID_27_);}
	.st29{fill:url(#SVGID_28_);}
	.st30{fill:url(#SVGID_29_);}
	.st31{fill:url(#SVGID_30_);}
	.st32{fill:url(#SVGID_31_);}
	.st33{fill:url(#SVGID_32_);}
	.st34{fill:url(#SVGID_33_);}
	.st35{fill:url(#SVGID_34_);}
	.st36{fill:url(#SVGID_35_);}
	.st37{fill:url(#SVGID_36_);}
</style>
<g>
	<g>
		<path class="st0" d="M570.2,831c-1.8,5.4-50.4,46.8-64.8,48.6C491,881.3,397.5,822,397.5,822l-16.2-55.8l106.1-10.8L570.2,831z"/>
		<linearGradient id="SVGID_1_" gradientUnits="userSpaceOnUse" x1="149.3036" y1="373.2194" x2="491.0408" y2="373.2194">
			<stop  offset="1.118836e-07" style="stop-color:#BF5617"/>
			<stop  offset="0.2489" style="stop-color:#C65D19"/>
			<stop  offset="0.6162" style="stop-color:#D8711C"/>
			<stop  offset="1" style="stop-color:#F38F24"/>
		</linearGradient>
		<path class="st1" d="M491,381.3c-7.2-9-109.7-167.3-109.7-167.3l-151.1-95.3l-80.9,79.1c0,0,10.8,205,10.8,210.4
			s64.8,219.4,64.8,219.4L491,381.3z"/>
		<linearGradient id="SVGID_2_" gradientUnits="userSpaceOnUse" x1="487.4436" y1="594.8989" x2="709.273" y2="594.8989">
			<stop  offset="6.517725e-02" style="stop-color:#E97505"/>
			<stop  offset="0.3953" style="stop-color:#EA7806"/>
			<stop  offset="0.6157" style="stop-color:#EC7F0C"/>
			<stop  offset="0.8039" style="stop-color:#F08C14"/>
			<stop  offset="0.9731" style="stop-color:#F59E1E"/>
			<stop  offset="1" style="stop-color:#F6A220"/>
		</linearGradient>
		<path class="st2" d="M487.4,755.4C561.4,623.2,635.3,491,709.3,358.8C662.9,516.2,616.5,673.6,570.2,831L487.4,755.4z"/>
		<linearGradient id="SVGID_3_" gradientUnits="userSpaceOnUse" x1="626.8364" y1="862.4431" x2="708.6735" y2="862.4431">
			<stop  offset="6.517702e-02" style="stop-color:#ED7024"/>
			<stop  offset="0.4274" style="stop-color:#EE7224"/>
			<stop  offset="0.6983" style="stop-color:#EF7B22"/>
			<stop  offset="0.9389" style="stop-color:#F1881D"/>
			<stop  offset="1" style="stop-color:#F28C1B"/>
		</linearGradient>
		<polygon class="st3" points="626.8,1006.4 708.7,710.5 708,1014.4 674.8,1004.9 		"/>
		<linearGradient id="SVGID_4_" gradientUnits="userSpaceOnUse" x1="570.18" y1="594.8989" x2="709.273" y2="594.8989">
			<stop  offset="6.517702e-02" style="stop-color:#ED7024"/>
			<stop  offset="0.4274" style="stop-color:#EE7224"/>
			<stop  offset="0.6983" style="stop-color:#EF7B22"/>
			<stop  offset="0.9389" style="stop-color:#F1881D"/>
			<stop  offset="1" style="stop-color:#F28C1B"/>
		</linearGradient>
		<path class="st4" d="M570.2,831l138.5-120.5c0.2-117.2,0.4-234.4,0.6-351.6C662.9,516.2,616.5,673.6,570.2,831z"/>
		<linearGradient id="SVGID_5_" gradientUnits="userSpaceOnUse" x1="505.4297" y1="875.4831" x2="708.6735" y2="875.4831">
			<stop  offset="6.517725e-02" style="stop-color:#E97505"/>
			<stop  offset="0.3953" style="stop-color:#EA7806"/>
			<stop  offset="0.6157" style="stop-color:#EC7F0C"/>
			<stop  offset="0.8039" style="stop-color:#F08C14"/>
			<stop  offset="0.9731" style="stop-color:#F59E1E"/>
			<stop  offset="1" style="stop-color:#F6A220"/>
		</linearGradient>
		<polygon class="st5" points="505.4,879.5 617.2,1040.5 708.7,710.5 		"/>
		<linearGradient id="SVGID_6_" gradientUnits="userSpaceOnUse" x1="487.4436" y1="557.128" x2="709.273" y2="557.128">
			<stop  offset="1.118836e-07" style="stop-color:#BF5617"/>
			<stop  offset="0.2489" style="stop-color:#C65D19"/>
			<stop  offset="0.6162" style="stop-color:#D8711C"/>
			<stop  offset="1" style="stop-color:#F38F24"/>
		</linearGradient>
		<path class="st6" d="M487.4,755.4l3.6-374.1l79.1-19.8c46.4-0.9,92.7-1.8,139.1-2.7C635.3,491,561.4,623.2,487.4,755.4z"/>
		<linearGradient id="SVGID_7_" gradientUnits="userSpaceOnUse" x1="397.5128" y1="931.2402" x2="617.2438" y2="931.2402">
			<stop  offset="1.118836e-07" style="stop-color:#BF5617"/>
			<stop  offset="0.4965" style="stop-color:#BF5117"/>
			<stop  offset="1" style="stop-color:#C04617"/>
		</linearGradient>
		<polygon class="st7" points="397.5,822 617.2,1040.5 505.4,879.5 		"/>
		<linearGradient id="SVGID_8_" gradientUnits="userSpaceOnUse" x1="224.8455" y1="573.7651" x2="491.0408" y2="573.7651">
			<stop  offset="6.517725e-02" style="stop-color:#E97505"/>
			<stop  offset="0.3953" style="stop-color:#EA7806"/>
			<stop  offset="0.6157" style="stop-color:#EC7F0C"/>
			<stop  offset="0.8039" style="stop-color:#F08C14"/>
			<stop  offset="0.9731" style="stop-color:#F59E1E"/>
			<stop  offset="1" style="stop-color:#F6A220"/>
		</linearGradient>
		<polygon class="st8" points="224.8,627.7 381.3,766.2 491,381.3 		"/>
		<linearGradient id="SVGID_9_" gradientUnits="userSpaceOnUse" x1="381.3252" y1="573.7651" x2="491.0408" y2="573.7651">
			<stop  offset="6.517725e-02" style="stop-color:#E97505"/>
			<stop  offset="0.3953" style="stop-color:#EA7806"/>
			<stop  offset="0.6157" style="stop-color:#EC7F0C"/>
			<stop  offset="0.8039" style="stop-color:#F08C14"/>
			<stop  offset="0.9731" style="stop-color:#F59E1E"/>
			<stop  offset="1" style="stop-color:#F6A220"/>
		</linearGradient>
		<polygon class="st9" points="487.4,755.4 491,381.3 381.3,766.2 		"/>
		<linearGradient id="SVGID_10_" gradientUnits="userSpaceOnUse" x1="287.7971" y1="1060.291" x2="708.6735" y2="1060.291">
			<stop  offset="1.118836e-07" style="stop-color:#BF5617"/>
			<stop  offset="0.2489" style="stop-color:#C65D19"/>
			<stop  offset="0.6162" style="stop-color:#D8711C"/>
			<stop  offset="1" style="stop-color:#F38F24"/>
		</linearGradient>
		<polygon class="st10" points="397.5,822 287.8,1127.5 708.7,1298.6 		"/>
		<linearGradient id="SVGID_11_" gradientUnits="userSpaceOnUse" x1="397.5128" y1="1060.291" x2="708.6735" y2="1060.291">
			<stop  offset="6.517725e-02" style="stop-color:#E97505"/>
			<stop  offset="1" style="stop-color:#E96E08"/>
		</linearGradient>
		<polygon class="st11" points="397.5,822 708.7,1298.6 708.1,1127.4 		"/>
		<linearGradient id="SVGID_12_" gradientUnits="userSpaceOnUse" x1="617.2438" y1="1066.1895" x2="708.8397" y2="1066.1895">
			<stop  offset="1.118836e-07" style="stop-color:#BF5617"/>
			<stop  offset="0.6214" style="stop-color:#BF5517"/>
			<stop  offset="0.845" style="stop-color:#BF5017"/>
			<stop  offset="1" style="stop-color:#C04617"/>
		</linearGradient>
		<path class="st12" d="M708,1014.4c0.8,54.9,1.3,113,0.1,113c0,0,0,0,0,0c-1.3-1.3-21-8.7-21-8.7l-11.4-14.7
			c-11.9-14.5-23.8-29-35.6-43.5c-7.6-6.7-15.2-13.4-22.8-20c3.2-11.4,6.4-22.7,9.6-34.1c16-0.5,32-1,48-1.5
			C685.9,1008.1,697,1011.3,708,1014.4z"/>
		<polygon class="st13" points="708.7,1298.6 523.4,1262.6 487.4,1208.6 		"/>
		<linearGradient id="SVGID_13_" gradientUnits="userSpaceOnUse" x1="287.7971" y1="1195.0435" x2="523.4159" y2="1195.0435">
			<stop  offset="6.517725e-02" style="stop-color:#E97505"/>
			<stop  offset="1" style="stop-color:#E96E08"/>
		</linearGradient>
		<polygon class="st14" points="287.8,1127.5 487.4,1208.6 523.4,1262.6 		"/>
		<linearGradient id="SVGID_14_" gradientUnits="userSpaceOnUse" x1="181.6787" y1="696.9704" x2="381.3252" y2="696.9704">
			<stop  offset="6.517725e-02" style="stop-color:#E97505"/>
			<stop  offset="0.1238" style="stop-color:#EC800C"/>
			<stop  offset="0.2431" style="stop-color:#F18F15"/>
			<stop  offset="0.3866" style="stop-color:#F49A1C"/>
			<stop  offset="0.5768" style="stop-color:#F6A01F"/>
			<stop  offset="1" style="stop-color:#F6A220"/>
		</linearGradient>
		<polygon class="st15" points="224.8,627.7 381.3,766.2 181.7,755.4 		"/>
		<linearGradient id="SVGID_15_" gradientUnits="userSpaceOnUse" x1="181.6787" y1="946.8344" x2="381.3252" y2="946.8344">
			<stop  offset="1.118836e-07" style="stop-color:#BF5617"/>
			<stop  offset="0.2489" style="stop-color:#C65D19"/>
			<stop  offset="0.6162" style="stop-color:#D8711C"/>
			<stop  offset="1" style="stop-color:#F38F24"/>
		</linearGradient>
		<polygon class="st16" points="181.7,940.7 381.3,766.2 287.8,1127.5 		"/>
		<linearGradient id="SVGID_16_" gradientUnits="userSpaceOnUse" x1="181.6787" y1="848.0543" x2="381.3252" y2="848.0543">
			<stop  offset="6.517725e-02" style="stop-color:#E97505"/>
			<stop  offset="0.3953" style="stop-color:#EA7806"/>
			<stop  offset="0.6157" style="stop-color:#EC7F0C"/>
			<stop  offset="0.8039" style="stop-color:#F08C14"/>
			<stop  offset="0.9731" style="stop-color:#F59E1E"/>
			<stop  offset="1" style="stop-color:#F6A220"/>
		</linearGradient>
		<polygon class="st17" points="181.7,755.4 181.7,940.7 381.3,766.2 		"/>
		<linearGradient id="SVGID_17_" gradientUnits="userSpaceOnUse" x1="287.7971" y1="946.8344" x2="397.5128" y2="946.8344">
			<stop  offset="6.517725e-02" style="stop-color:#E97505"/>
			<stop  offset="1" style="stop-color:#E96E08"/>
		</linearGradient>
		<polygon class="st18" points="287.8,1127.5 397.5,822 381.3,766.2 		"/>
		<linearGradient id="SVGID_18_" gradientUnits="userSpaceOnUse" x1="162.4935" y1="374.5459" x2="479.8013" y2="374.5459">
			<stop  offset="6.517702e-02" style="stop-color:#ED7024"/>
			<stop  offset="7.691719e-02" style="stop-color:#EE7226"/>
			<stop  offset="0.1922" style="stop-color:#F18837"/>
			<stop  offset="0.3205" style="stop-color:#F49A46"/>
			<stop  offset="0.4695" style="stop-color:#F6A550"/>
			<stop  offset="0.6563" style="stop-color:#F7AC57"/>
			<stop  offset="1" style="stop-color:#F8AE59"/>
		</linearGradient>
		<polygon class="st19" points="240.1,613.6 170.9,405.3 162.5,205 234.4,135.5 367.5,220.6 479.8,391.7 		"/>
	</g>
	<g>
		<path class="st0" d="M847.1,831c1.8,5.4,50.4,46.8,64.8,48.6c14.4,1.8,107.9-57.6,107.9-57.6l16.2-55.8l-106.1-10.8L847.1,831z"/>
		
			<linearGradient id="SVGID_19_" gradientUnits="userSpaceOnUse" x1="-240.223" y1="373.2194" x2="101.5142" y2="373.2194" gradientTransform="matrix(-1 0 0 1 1027.7961 0)">
			<stop  offset="1.118836e-07" style="stop-color:#BF5617"/>
			<stop  offset="0.2489" style="stop-color:#C65D19"/>
			<stop  offset="0.6162" style="stop-color:#D8711C"/>
			<stop  offset="1" style="stop-color:#F38F24"/>
		</linearGradient>
		<path class="st20" d="M926.3,381.3c7.2-9,109.7-167.3,109.7-167.3l151.1-95.3l80.9,79.1c0,0-10.8,205-10.8,210.4
			s-64.8,219.4-64.8,219.4L926.3,381.3z"/>
		
			<linearGradient id="SVGID_20_" gradientUnits="userSpaceOnUse" x1="97.9169" y1="594.8989" x2="319.7463" y2="594.8989" gradientTransform="matrix(-1 0 0 1 1027.7961 0)">
			<stop  offset="6.517725e-02" style="stop-color:#E97505"/>
			<stop  offset="0.3953" style="stop-color:#EA7806"/>
			<stop  offset="0.6157" style="stop-color:#EC7F0C"/>
			<stop  offset="0.8039" style="stop-color:#F08C14"/>
			<stop  offset="0.9731" style="stop-color:#F59E1E"/>
			<stop  offset="1" style="stop-color:#F6A220"/>
		</linearGradient>
		<path class="st21" d="M929.9,755.4C855.9,623.2,782,491,708,358.8c46.4,157.4,92.7,314.8,139.1,472.1L929.9,755.4z"/>
		
			<linearGradient id="SVGID_21_" gradientUnits="userSpaceOnUse" x1="237.3097" y1="862.4431" x2="319.1468" y2="862.4431" gradientTransform="matrix(-1 0 0 1 1027.7961 0)">
			<stop  offset="6.517702e-02" style="stop-color:#ED7024"/>
			<stop  offset="0.4274" style="stop-color:#EE7224"/>
			<stop  offset="0.6983" style="stop-color:#EF7B22"/>
			<stop  offset="0.9389" style="stop-color:#F1881D"/>
			<stop  offset="1" style="stop-color:#F28C1B"/>
		</linearGradient>
		<polygon class="st22" points="790.5,1006.4 708.6,710.5 709.3,1014.4 742.5,1004.9 		"/>
		
			<linearGradient id="SVGID_22_" gradientUnits="userSpaceOnUse" x1="180.6533" y1="594.8989" x2="319.7463" y2="594.8989" gradientTransform="matrix(-1 0 0 1 1027.7961 0)">
			<stop  offset="6.517702e-02" style="stop-color:#ED7024"/>
			<stop  offset="0.4274" style="stop-color:#EE7224"/>
			<stop  offset="0.6983" style="stop-color:#EF7B22"/>
			<stop  offset="0.9389" style="stop-color:#F1881D"/>
			<stop  offset="1" style="stop-color:#F28C1B"/>
		</linearGradient>
		<path class="st23" d="M847.1,831L708.6,710.5c-0.2-117.2-0.4-234.4-0.6-351.6C754.4,516.2,800.8,673.6,847.1,831z"/>
		
			<linearGradient id="SVGID_23_" gradientUnits="userSpaceOnUse" x1="115.9031" y1="875.4831" x2="319.1468" y2="875.4831" gradientTransform="matrix(-1 0 0 1 1027.7961 0)">
			<stop  offset="6.517725e-02" style="stop-color:#E97505"/>
			<stop  offset="0.3953" style="stop-color:#EA7806"/>
			<stop  offset="0.6157" style="stop-color:#EC7F0C"/>
			<stop  offset="0.8039" style="stop-color:#F08C14"/>
			<stop  offset="0.9731" style="stop-color:#F59E1E"/>
			<stop  offset="1" style="stop-color:#F6A220"/>
		</linearGradient>
		<polygon class="st24" points="911.9,879.5 800.1,1040.5 708.6,710.5 		"/>
		
			<linearGradient id="SVGID_24_" gradientUnits="userSpaceOnUse" x1="97.9169" y1="557.128" x2="319.7463" y2="557.128" gradientTransform="matrix(-1 0 0 1 1027.7961 0)">
			<stop  offset="1.118836e-07" style="stop-color:#BF5617"/>
			<stop  offset="0.2489" style="stop-color:#C65D19"/>
			<stop  offset="0.6162" style="stop-color:#D8711C"/>
			<stop  offset="1" style="stop-color:#F38F24"/>
		</linearGradient>
		<path class="st25" d="M929.9,755.4l-3.6-374.1l-79.1-19.8c-46.4-0.9-92.7-1.8-139.1-2.7C782,491,855.9,623.2,929.9,755.4z"/>
		
			<linearGradient id="SVGID_25_" gradientUnits="userSpaceOnUse" x1="7.9861" y1="931.2402" x2="227.7171" y2="931.2402" gradientTransform="matrix(-1 0 0 1 1027.7961 0)">
			<stop  offset="1.118836e-07" style="stop-color:#BF5617"/>
			<stop  offset="0.4965" style="stop-color:#BF5117"/>
			<stop  offset="1" style="stop-color:#C04617"/>
		</linearGradient>
		<polygon class="st26" points="1019.8,822 800.1,1040.5 911.9,879.5 		"/>
		
			<linearGradient id="SVGID_26_" gradientUnits="userSpaceOnUse" x1="-164.6811" y1="573.7651" x2="101.5142" y2="573.7651" gradientTransform="matrix(-1 0 0 1 1027.7961 0)">
			<stop  offset="6.517725e-02" style="stop-color:#E97505"/>
			<stop  offset="0.3953" style="stop-color:#EA7806"/>
			<stop  offset="0.6157" style="stop-color:#EC7F0C"/>
			<stop  offset="0.8039" style="stop-color:#F08C14"/>
			<stop  offset="0.9731" style="stop-color:#F59E1E"/>
			<stop  offset="1" style="stop-color:#F6A220"/>
		</linearGradient>
		<polygon class="st27" points="1192.5,627.7 1036,766.2 926.3,381.3 		"/>
		
			<linearGradient id="SVGID_27_" gradientUnits="userSpaceOnUse" x1="-8.2015" y1="573.7651" x2="101.5142" y2="573.7651" gradientTransform="matrix(-1 0 0 1 1027.7961 0)">
			<stop  offset="6.517725e-02" style="stop-color:#E97505"/>
			<stop  offset="0.3953" style="stop-color:#EA7806"/>
			<stop  offset="0.6157" style="stop-color:#EC7F0C"/>
			<stop  offset="0.8039" style="stop-color:#F08C14"/>
			<stop  offset="0.9731" style="stop-color:#F59E1E"/>
			<stop  offset="1" style="stop-color:#F6A220"/>
		</linearGradient>
		<polygon class="st28" points="929.9,755.4 926.3,381.3 1036,766.2 		"/>
		
			<linearGradient id="SVGID_28_" gradientUnits="userSpaceOnUse" x1="-101.7295" y1="1060.291" x2="319.1468" y2="1060.291" gradientTransform="matrix(-1 0 0 1 1027.7961 0)">
			<stop  offset="1.118836e-07" style="stop-color:#BF5617"/>
			<stop  offset="0.2489" style="stop-color:#C65D19"/>
			<stop  offset="0.6162" style="stop-color:#D8711C"/>
			<stop  offset="1" style="stop-color:#F38F24"/>
		</linearGradient>
		<polygon class="st29" points="1019.8,822 1129.5,1127.5 708.6,1298.6 		"/>
		
			<linearGradient id="SVGID_29_" gradientUnits="userSpaceOnUse" x1="7.9861" y1="1060.291" x2="319.1468" y2="1060.291" gradientTransform="matrix(-1 0 0 1 1027.7961 0)">
			<stop  offset="6.517725e-02" style="stop-color:#E97505"/>
			<stop  offset="1" style="stop-color:#E96E08"/>
		</linearGradient>
		<polygon class="st30" points="1019.8,822 708.6,1298.6 709.2,1127.4 		"/>
		
			<linearGradient id="SVGID_30_" gradientUnits="userSpaceOnUse" x1="227.7171" y1="1066.1895" x2="319.313" y2="1066.1895" gradientTransform="matrix(-1 0 0 1 1027.7961 0)">
			<stop  offset="1.118836e-07" style="stop-color:#BF5617"/>
			<stop  offset="0.6214" style="stop-color:#BF5517"/>
			<stop  offset="0.845" style="stop-color:#BF5017"/>
			<stop  offset="1" style="stop-color:#C04617"/>
		</linearGradient>
		<path class="st31" d="M709.3,1014.4c-0.8,54.9-1.3,113-0.1,113c0,0,0,0,0,0c1.3-1.3,21-8.7,21-8.7l11.4-14.7
			c11.9-14.5,23.8-29,35.6-43.5c7.6-6.7,15.2-13.4,22.8-20c-3.2-11.4-6.4-22.7-9.6-34.1c-16-0.5-32-1-48-1.5
			C731.4,1008.1,720.4,1011.3,709.3,1014.4z"/>
		<polygon class="st13" points="708.6,1298.6 893.9,1262.6 929.9,1208.6 		"/>
		
			<linearGradient id="SVGID_31_" gradientUnits="userSpaceOnUse" x1="-101.7295" y1="1195.0435" x2="133.8892" y2="1195.0435" gradientTransform="matrix(-1 0 0 1 1027.7961 0)">
			<stop  offset="6.517725e-02" style="stop-color:#E97505"/>
			<stop  offset="1" style="stop-color:#E96E08"/>
		</linearGradient>
		<polygon class="st32" points="1129.5,1127.5 929.9,1208.6 893.9,1262.6 		"/>
		
			<linearGradient id="SVGID_32_" gradientUnits="userSpaceOnUse" x1="-207.8479" y1="696.9704" x2="-8.2015" y2="696.9704" gradientTransform="matrix(-1 0 0 1 1027.7961 0)">
			<stop  offset="6.517725e-02" style="stop-color:#E97505"/>
			<stop  offset="0.1238" style="stop-color:#EC800C"/>
			<stop  offset="0.2431" style="stop-color:#F18F15"/>
			<stop  offset="0.3866" style="stop-color:#F49A1C"/>
			<stop  offset="0.5768" style="stop-color:#F6A01F"/>
			<stop  offset="1" style="stop-color:#F6A220"/>
		</linearGradient>
		<polygon class="st33" points="1192.5,627.7 1036,766.2 1235.6,755.4 		"/>
		
			<linearGradient id="SVGID_33_" gradientUnits="userSpaceOnUse" x1="-207.8479" y1="946.8344" x2="-8.2015" y2="946.8344" gradientTransform="matrix(-1 0 0 1 1027.7961 0)">
			<stop  offset="1.118836e-07" style="stop-color:#BF5617"/>
			<stop  offset="0.2489" style="stop-color:#C65D19"/>
			<stop  offset="0.6162" style="stop-color:#D8711C"/>
			<stop  offset="1" style="stop-color:#F38F24"/>
		</linearGradient>
		<polygon class="st34" points="1235.6,940.7 1036,766.2 1129.5,1127.5 		"/>
		
			<linearGradient id="SVGID_34_" gradientUnits="userSpaceOnUse" x1="-207.8479" y1="848.0543" x2="-8.2015" y2="848.0543" gradientTransform="matrix(-1 0 0 1 1027.7961 0)">
			<stop  offset="6.517725e-02" style="stop-color:#E97505"/>
			<stop  offset="0.3953" style="stop-color:#EA7806"/>
			<stop  offset="0.6157" style="stop-color:#EC7F0C"/>
			<stop  offset="0.8039" style="stop-color:#F08C14"/>
			<stop  offset="0.9731" style="stop-color:#F59E1E"/>
			<stop  offset="1" style="stop-color:#F6A220"/>
		</linearGradient>
		<polygon class="st35" points="1235.6,755.4 1235.6,940.7 1036,766.2 		"/>
		
			<linearGradient id="SVGID_35_" gradientUnits="userSpaceOnUse" x1="-101.7295" y1="946.8344" x2="7.9861" y2="946.8344" gradientTransform="matrix(-1 0 0 1 1027.7961 0)">
			<stop  offset="6.517725e-02" style="stop-color:#E97505"/>
			<stop  offset="1" style="stop-color:#E96E08"/>
		</linearGradient>
		<polygon class="st36" points="1129.5,1127.5 1019.8,822 1036,766.2 		"/>
		
			<linearGradient id="SVGID_36_" gradientUnits="userSpaceOnUse" x1="-227.0332" y1="374.5459" x2="90.2746" y2="374.5459" gradientTransform="matrix(-1 0 0 1 1027.7961 0)">
			<stop  offset="6.517702e-02" style="stop-color:#ED7024"/>
			<stop  offset="7.691719e-02" style="stop-color:#EE7226"/>
			<stop  offset="0.1922" style="stop-color:#F18837"/>
			<stop  offset="0.3205" style="stop-color:#F49A46"/>
			<stop  offset="0.4695" style="stop-color:#F6A550"/>
			<stop  offset="0.6563" style="stop-color:#F7AC57"/>
			<stop  offset="1" style="stop-color:#F8AE59"/>
		</linearGradient>
		<polygon class="st37" points="1177.2,613.6 1246.4,405.3 1254.8,205 1182.9,135.5 1049.8,220.6 937.5,391.7 		"/>
	</g>
</g>
</svg>
