<?xml version="1.0" encoding="utf-8"?>
<!-- Generator: Adobe Illustrator 24.3.0, SVG Export Plug-In . SVG Version: 6.00 Build 0)  -->
<svg version="1.1" id="Laag_1" xmlns="http://www.w3.org/2000/svg" xmlns:xlink="http://www.w3.org/1999/xlink" x="0px" y="0px"
	 viewBox="0 0 1133.9 1133.9" style="enable-background:new 0 0 1133.9 1133.9;" xml:space="preserve">
<style type="text/css">
	.st0{enable-background:new    ;}
	.st1{fill:#F8AA2C;}
</style>
<g class="st0">
	<path d="M358.8,737.5l-0.9,2.3l-3,2.1l-3.3-6.3l-3.3-12.4l-3-5.4v-3.3l-0.9-18.7l-5.6-17.8l-1.9-19.2l-3.5-12.9l-4.2-18.7
		l-1.4-13.8l-4.4-7.7l-3.7-14.3V580l-3.3-9.6l0.5-19.6l-3.5-6.5l-1.4-10.5l-0.5-15l1.9-14.7l3-8.2l-3-9.1l-1.4-9.6l-0.5-11l-5.8-4.7
		l-5.1-2.1l-6.3,6.3l-7,9.6l-6.3,11.9l-5.4,13.8l-4.7,15.4l-4.2,12.9l-4,13.1l-4.2,12.9l-3.5,7.2l-3.8,3.7l-4.2,2.3l-6.3-2.8
		l-4.2-6.8l-7.2-11l-4-10.1l-5.1-22.9l-1.9-10.5l-3-12.9l-4.7-11.7l-2.8-10.5l-4-8.6l-4.7-2.8l-5.8-2.8l-2.8,6.3l-3.7,10.5
		l-4.4,12.9l-3.7,27.4l-3,15.7v5.8l-2.3,21l-4.7,25.2l-0.5,13.6l4.2,4.7l0.5,10.1l2.3,8.6l-4.7,7.7l-5.4,7.7l-9.1,1.4h-8.9
		l-11.2,0.5l-7.5-3.3l-5.4-4l-2.8-9.1l2.8-19.6l5.4-10.1l4.2-1.9l0.9-23.8l8.2-28.3l1.4-11.5l5.8-10.5l-0.5-6.8l6.5-10.5v-6.8
		l13.6-33l1.9-6.8l4.2-3.3l1.4-8.6l6.3-8.2l8.2-11.9l7.2-4.2h6.1l4,4.7l4.2,8.6l2.8,11l3.5,11.9l4.7,15.9l2.3,11l4,12.9l1.9,10.1
		l1.9,14l1.4,11.5l3.5,11l6.1,7.7l3.5,2.8l3.7-4.4l2.3-7.9l4.4-9.1l5.1-15.4l5.8-13.8l3.3-10.5l3.3-7.7l-3.3-3.7l-2.8-7.7l0.5-9.6
		l4.2-10.1l4.9-9.6l1.9-9.1l6.3-11l4.7-4.9l6.3-8.4l8.6-5.4l5.1-3.3l7.7,1.9l7.7,0.9l7.9,4.7l6.3,5.8l5.4,7.2l1.4,10.1l0.5,11.9
		l-0.5,11l-0.5,13.8l0.9,25.9v15l4.2,26.2l-0.5,12.9l-0.9,17.3l-0.5,14v12.9l-1.4,15.7l-2.8,6.3l2.8,12.4v25.5l2.8,5.1l0.5,17.3
		l1.9,14l3,25.7l0.9,11.5V737.5z M156.8,663l-3.5,3.3l-3.7-0.5l0.5-6.3h3.7L156.8,663z M210.4,375.7l-2.3,4.2l-4-1.4l0.5-6.1h4.4
		L210.4,375.7z M367,574.8l-4.9,5.1l-2.3-5.1l3.3-4.9L367,574.8z"/>
</g>
<g class="st0">
	<path class="st1" d="M410,526.4l-0.5,2.8l-3.7,2.1l-2.3-3.5l2.8-3.7L410,526.4z M584.4,671.6l-0.5,6.5l-3.5,5.4l-1.9,4.2l-4.2,3.5
		h-7.2l-6.3,1.9l-7,2.3h-8.2l-9.6-0.9l-11,1.9h-7.2l-8.2,2.3l-6.5,4l-9.1,2.8l-8.6,5.4l-7.2,4.7h-13.3l-8.2-1.4H447l-7.7-0.5
		l-6.5-1.4l-7.2-2.6l-8.2,1.2l-5.4-1.6l-2.3-3.7l0.5-5.4v-6.1l0.5-5.4l2.6-5.1l-1.2-5.4l1.2-4.7l1.4-5.8v-7.2l2.3-8.9l0.5-9.1
		l-0.5-7.7l1.4-7.2l0.9-8.2l1.9-7l0.5-8.7l-0.5-4.9v-18.2l0.5-7.9V562l1.2-7.7l0.9-10.1l0.5-6.3l-0.5-6.5l-0.9-6.8l0.9-6.3v-8.2
		l0.5-7.5l0.9-7.2l-0.9-4.4l0.9-4.7l0.9-6.3l-0.5-4.7l1.9-5.8l-2.3-5.1l-0.9-6.8v-7.7l-0.5-7l-0.9-7.2v-6.3l2.3-4.2l-3.5-4l-0.9-4.7
		l3-4.2v-5.4l1.9-5.8v-7l0.5-6.3l-0.5-4.2l4.2-5.4l4.9-4.2l4.7-1.9l5.8-0.7l6.1-1.9l5.8,0.5l5.4,3.5l5.1,2.8l6.3,4.2l4.2,6.3
		l1.9,6.8l0.9,5.1l-1.9,6.3l-0.9,4.7l-5.6,4.9l-3.5,5.6l-1.4,9.1l-2.3,6.3l-1.4,6.3l-1.4,6.5l-2.1,6.8v7.7l-2.3,7.5l-1.9,13.6v7
		l-2.3,6.3l-1.4,4.9l-2.6,4.2l-0.5,6.3l-1.4,7.5L446,536v7.7l-2.3,6.5l-0.9,8.6l-2.1,8.2v7.7l-1.4,5.6l-0.9,4.9v7.2l-1.9,6.1
		L436,605l-1.4,7.2l-2.3,7.9l0.5,5.8l-0.5,9.6l-1.6,7.2l-1.4,5.1v3.5l-0.9,5.1l-0.5,6.3l1.4,2.8l4.4,0.9l5.1-2.3l8.2-0.9l9.1-0.9
		h5.1l6.8,2.8h7.7l5.1-1.9l6.3-0.5l8.6-3l4.7-1.9l7.2,0.5l9.1,1.4l8.6-1.4l10.1-2.3l7.7-3.7l6.1-3l1.4-4.2l6.8-3.7l5.4-2.6l6.5,1.4
		l4.9,3.5l2.8,5.1l4.9,4.9l0.9,5.1l1.4,6.3V671.6z M549.8,594.5l-1.4,2.8l-2.8-0.9l-2.3-4.2l3.3-4l3.3,2.3V594.5z"/>
</g>
<g class="st0">
	<path d="M775.4,336.8l-5.6,2.8v6.3l-5.4,4.7l-6.8,6.8l-7.5,4.9l-9.1,5.1l-4.4,3.3l-4.7,3l-3.5,5.1l-6.1,5.4l-4.4,2.3l-1.4,4.2
		l-3.3,3l-2.8,6.5l-6.8,8.6l-4.7,7.2l-5.8,7.7l-2.8,8.6l-4.9,6.5l-3.7,9.6l-2.3,8.2l-4,7.2l-3.3,2.8l-2.3,8.2l-2.6,7.2l-4.2,9.1
		l-2.8,8.4l-2.1,9.1l-2.8,9.6l-1.9,9.1l-1.9,10.1l-0.9,8.2l-2.6,12.4l-0.5,9.6v11l-0.5,9.1v18.7l0.5,9.6l0.5,4.9l1.6,7.9l0.5,8.6
		l0.9,6.8l2.3,11l1.4,9.1l2.3,8.2l4.4,9.6l1.9,7.5l4.2,5.8l4.4,11l2.8,5.4l4,3.3l3.7,9.1l5.6,7.2l3,3.7l11,13.8l2.8,5.4l7.2,5.8
		l5.6,4.7l2.6,3.3l5.6,4.4l1.9,3.7l-5.1,1.9l-3.3-1.9l-4.4-4.2l-6.1-3.5l-2.1-5.6l-6.1-4l-4.9-5.6l-6.1-5.4l-3.5-6.5l-5.6-6.8
		l-4-8.2l-6.5-5.6l-3.5-8.2l-3.7-8.6l-4.4-6.3l-2.8-7l-2.3-7.7l-3.3-6.3l-1.6-6.1l-2.3-8.6l-1.4-6.8l-1.4-8.2l-2.8-8.6l-2.1-13.8
		v-9.6l-2.3-10.1l-0.9-10.1v-8.2l-1.4-6.8l1.4-8.4l-1.4-9.6l1.4-8.2v-10.5l1.4-10.5l0.5-7.2v-9.1l2.1-9.6l0.9-8.2l2.8-7l0.9-5.8
		l0.9-6.3l3.3-6.5l0.5-7.2l3.5-6.8l1.4-8.6l3.7-7.5l3.5-10.5l2.3-8.6l3.3-11.5l2.3-10.1l3.5-9.1l7.2-9.1l3.3-8.6l4.2-5.8l8.2-8.6
		l6.8-4.7l5.1-6.3l4.4-6.5l1.9-9.6l3.3-5.8l2.6-7.2l4.2-5.1l7.7-4.4l6.5-0.9l11.2,0.5l7.5,3l5.8,3.3l6.1,3.7l3.5,4.9l3.7,4.7V336.8z
		"/>
	<path d="M920.6,526.9l-1.6,8.2v10.5l-1.4,10.5l-0.5,7.2v9.1l-1.9,9.6l-0.9,7.9l-2.8,7.2l-0.9,5.8l-1.2,6.1l-3.3,6.8l-0.5,7.2
		l-3.3,6.5l-1.4,8.6l-4,7.7l-3.3,10.5l-2.3,8.7l-3.5,11.5l-2.3,10.1l-3.3,9.1L875,705l-3.3,8.6l-4.4,5.6l-8.2,8.6l-6.5,4.9l-5.4,6.1
		l-4.2,6.8l-1.9,9.6l-3.5,5.8l-2.3,7l-4.2,5.4l-7.7,4.2l-6.8,0.9l-11-0.5l-7.7-2.8l-5.6-3.3l-6.3-4l-3.3-4.7l-4-4.9v-6.1l5.8-3v-6.1
		l5.1-4.9l6.8-6.5l7.7-4.9l9.1-5.1l4.2-3.5l4.9-2.8l3.3-5.4l6.3-5.1l4.2-2.3l1.4-4.4l3.5-2.8l2.8-6.8l6.8-8.6l4.7-7l5.8-7.7l2.8-8.7
		l4.7-6.8l4-9.6l2.3-7.9l3.7-7.2l3.5-2.8l2.3-8.2l2.3-7.2l4.4-9.1l2.8-8.6l1.9-9.1l2.8-9.6l2.1-8.9l1.9-10.1l0.9-8.2l2.3-12.6
		l0.5-9.4v-11.2l0.5-9.1v-18.5l-0.5-9.6l-0.5-4.9l-1.4-8.2l-0.5-8.4l-0.9-6.8l-2.3-11l-1.6-9.1l-2.3-8.2l-4.2-9.6l-1.9-7.7l-4.4-5.6
		l-4.2-11l-3-5.4l-3.7-3.3l-3.7-9.1l-5.8-7.2l-2.8-3.7l-11-14l-3-5.1l-7-5.8l-5.8-4.7l-2.3-3.5l-5.8-4.2l-1.9-3.7l5.4-2.1l3.3,2.1
		l4.2,4.2l6.3,3.3l1.9,5.8l6.3,3.7l4.7,5.8l6.3,5.1l3.3,6.8l5.8,6.8l3.7,8.2l6.8,5.6l3.3,8.2l4,8.7l4.2,6.1l2.8,7.2l2.6,7.7l3.3,6.3
		l1.4,6.1l2.3,8.7l1.4,6.8l1.6,8.2l2.8,8.4l1.9,14v9.6l2.3,10.1l0.9,10.1v8.2l1.6,6.5l-1.6,8.6L920.6,526.9z"/>
	<path d="M1054.5,565.2l-0.9,4.2l-8.6,7.7l-2.3,4.4l-3.5,5.1l-1.9,1.4l-3.3,5.4l-4.9,3.7l-4.2,2.3l-5.4,0.9l-6.5-1.4l-4-3.3
		l-2.3-6.8l-1.4-2.3l-2.8-2.8l-3-2.3l-1.4-2.6v-3.3l-1.4-3.7l-0.5-5.4l5.8-4.7l11-6.8l10.1-4.4h12.9l5.6,2.1l2.1,3.3l5.1,1.4
		l4.9,2.3L1054.5,565.2z M1049.6,710.9l-1.4,7.5l-1.4,10.1l-1.4,7.7l-4,10.1l-3.3,7.7l-3.3,6.1l-4.4,6.3l-3.3,5.4l-4.2,5.6l-3.5,4.9
		l-3.3,5.1l-5.8,4l-3.3,2.3l-3.3-0.5l-0.9-1.9l0.5-4.9l5.1-4.2l4-4.4l2.3-6.1l6.1-7.2l4.9-8.2l4.2-9.1l2.1-6.1l0.5-5.8v-10.5
		l-2.6-2.8l-4.7,2.8l-4.4,2.3l-4.7,1.4h-5.8l-4.2-1.9l-2.8-3.7l-3-7.2l-0.9-6.8l2.6-6.5l3.7-3.5l2.8-3.3l2.8-6.8l5.8-3.3l6.3-3.3
		h9.1l6.1-0.9l6.3,1.4l2.3,4.2l1.9,5.4v13.3L1049.6,710.9z"/>
</g>
</svg>
