<?xml version="1.0" encoding="utf-8"?>
<!-- Generator: Adobe Illustrator 24.3.0, SVG Export Plug-In . SVG Version: 6.00 Build 0)  -->
<svg version="1.1" id="Laag_1" xmlns="http://www.w3.org/2000/svg" xmlns:xlink="http://www.w3.org/1999/xlink" x="0px" y="0px"
	 viewBox="0 0 1133.9 1133.9" style="enable-background:new 0 0 1133.9 1133.9;" xml:space="preserve">
<style type="text/css">
	.st0{enable-background:new    ;}
	.st1{fill:#F8AA2C;}
</style>
<g class="st0">
	<path d="M582.4,989.6l-2.2,5.4l-7.1,4.9l-7.6-14.7l-7.6-28.8l-7.1-12.5v-7.6l-2.2-43.5l-13-41.3l-4.3-44.5l-8.1-29.9l-9.8-43.5
		l-3.3-32.1l-10.3-17.9l-8.7-33.1v-27.2l-7.6-22.3l1.1-45.6l-8.1-15.2l-3.3-24.4l-1.1-34.8l4.3-34.2l7.1-19l-7.1-21.2l-3.3-22.3
		l-1.1-25.5L458.6,348l-11.9-4.9L432,357.8l-16.3,22.3l-14.7,27.7l-12.5,32.1l-10.9,35.9l-9.8,29.9l-9.2,30.4l-9.8,29.9l-8.2,16.8
		l-8.7,8.7l-9.8,5.4l-14.7-6.5l-9.8-15.8L280.9,549l-9.2-23.4l-12-53.2l-4.3-24.4l-7.1-29.9l-10.9-27.2l-6.5-24.4l-9.2-20.1
		l-10.9-6.5l-13.6-6.5l-6.5,14.7l-8.7,24.4l-10.3,29.9l-8.7,63.6l-7.1,36.4v13.6l-5.4,48.9l-10.9,58.7l-1.1,31.5l9.8,10.9l1.1,23.4
		l5.4,20.1L144,727.2l-12.5,17.9l-21.2,3.3H89.7l-26.1,1.1l-17.4-7.6l-12.5-9.2l-6.5-21.2l6.5-45.6l12.5-23.4l9.8-4.3l2.2-55.4
		l19-65.7l3.3-26.6L94,465.9l-1.1-15.8l15.2-24.4V410l31.5-76.6l4.3-15.8l9.8-7.6l3.3-20.1l14.7-19l19-27.7l16.8-9.8h14.1l9.2,10.9
		l9.8,20.1l6.5,25.5l8.1,27.7l10.9,36.9l5.4,25.5l9.2,29.9l4.3,23.4l4.3,32.6l3.3,26.6l8.1,25.5l14.1,17.9l8.1,6.5l8.7-10.3
		l5.4-18.5l10.3-21.2l12-35.9l13.6-32.1l7.6-24.4l7.6-17.9l-7.6-8.7l-6.5-17.9l1.1-22.3l9.8-23.4l11.4-22.3l4.3-21.2l14.7-25.5
		l10.9-11.4l14.7-19.6l20.1-12.5l12-7.6l17.9,4.3l17.9,2.2l18.5,10.9l14.7,13.6l12.5,16.8l3.3,23.4l1.1,27.7l-1.1,25.5l-1.1,32.1
		l2.2,60.3v34.8l9.8,60.8l-1.1,29.9l-2.2,40.2l-1.1,32.6v29.9l-3.3,36.4l-6.5,14.7l6.5,28.8v59.2l6.5,12l1.1,40.2l4.3,32.6l7.1,59.8
		l2.2,26.6V989.6z M113,816.3l-8.1,7.6l-8.7-1.1l1.1-14.7h8.7L113,816.3z M237.4,148.7l-5.4,9.8l-9.2-3.3l1.1-14.1h10.3L237.4,148.7
		z M601.4,611.5l-11.4,12l-5.4-12l7.6-11.4L601.4,611.5z"/>
</g>
<g class="st0">
	<path class="st1" d="M701.5,499l-1.1,6.5l-8.7,4.9l-5.4-8.1l6.5-8.7L701.5,499z M1106.7,836.4l-1.1,15.2l-8.1,12.5l-4.3,9.8
		l-9.8,8.1h-16.8l-14.7,4.3l-16.3,5.4h-19l-22.3-2.2l-25.5,4.3h-16.8l-19,5.4l-15.2,9.2l-21.2,6.5l-20.1,12.5l-16.8,10.9h-31
		l-19-3.3h-22.3l-17.9-1.1l-15.2-3.3l-16.8-6l-19,2.7l-12.5-3.8l-5.4-8.7l1.1-12.5v-14.1l1.1-12.5l6-12l-2.7-12.5l2.7-10.9l3.3-13.6
		v-16.8l5.4-20.6l1.1-21.2l-1.1-17.9l3.3-16.8l2.2-19l4.3-16.3l1.1-20.1l-1.1-11.4v-42.4l1.1-18.5v-24.4l2.7-17.9l2.2-23.4l1.1-14.7
		l-1.1-15.2l-2.2-15.8L733,480v-19l1.1-17.4l2.2-16.8l-2.2-10.3l2.2-10.9l2.2-14.7l-1.1-10.9l4.3-13.6l-5.4-12l-2.2-15.8v-17.9
		l-1.1-16.3l-2.2-16.8v-14.7l5.4-9.8l-8.1-9.2l-2.2-10.9l7.1-9.8v-12.5l4.3-13.6V191l1.1-14.7l-1.1-9.8l9.8-12.5l11.4-9.8l10.9-4.3
		l13.6-1.6l14.1-4.3l13.6,1.1l12.5,8.1l12,6.5l14.7,9.8l9.8,14.7l4.3,15.8l2.2,12l-4.3,14.7l-2.2,10.9l-13,11.4l-8.1,13l-3.3,21.2
		l-5.4,14.7l-3.3,14.7l-3.3,15.2l-4.9,15.8v17.9l-5.4,17.4l-4.3,31.5v16.3l-5.4,14.7l-3.3,11.4l-6,9.8l-1.1,14.7l-3.3,17.4
		l-4.3,36.9v17.9l-5.4,15.2l-2.2,20.1l-4.9,19v17.9l-3.3,13l-2.2,11.4v16.8l-4.3,14.1l-1.1,14.7l-3.3,16.8l-5.4,18.5l1.1,13.6
		l-1.1,22.3l-3.8,16.8l-3.3,12v8.1l-2.2,12l-1.1,14.7l3.3,6.5l10.3,2.2l12-5.4l19-2.2l21.2-2.2h12l15.8,6.5h17.9l12-4.3l14.7-1.1
		l20.1-7.1l10.9-4.3l16.8,1.1l21.2,3.3l20.1-3.3l23.4-5.4l17.9-8.7l14.1-7.1l3.3-9.8l15.8-8.7l12.5-6l15.2,3.3l11.4,8.1l6.5,12
		l11.4,11.4l2.2,12l3.3,14.7V836.4z M1026.3,657.1l-3.3,6.5l-6.5-2.2l-5.4-9.8l7.6-9.2l7.6,5.4V657.1z"/>
</g>
<g class="st0">
</g>
</svg>
